# Blender v3.1.2 OBJ File: ''
# www.blender.org
mtllib instrucciones.mtl
o Cylinder
v 0.000000 0.000000 -0.590000
v 0.000000 8.620000 -0.590000
v 0.027313 0.000000 -0.578663
v 0.027313 8.620000 -0.578663
v 0.053576 0.000000 -0.545089
v 0.053576 8.620000 -0.545089
v 0.077780 0.000000 -0.490567
v 0.077780 8.620000 -0.490567
v 0.098995 0.000000 -0.417193
v 0.098995 8.620000 -0.417193
v 0.116406 0.000000 -0.327786
v 0.116406 8.620000 -0.327786
v 0.129343 0.000000 -0.225783
v 0.129343 8.620000 -0.225783
v 0.137310 0.000000 -0.115103
v 0.137310 8.620000 -0.115103
v 0.140000 0.000000 0.000000
v 0.140000 8.620000 0.000000
v 0.137310 0.000000 0.115103
v 0.137310 8.620000 0.115103
v 0.129343 0.000000 0.225783
v 0.129343 8.620000 0.225783
v 0.116406 0.000000 0.327786
v 0.116406 8.620000 0.327786
v 0.098995 0.000000 0.417193
v 0.098995 8.620000 0.417193
v 0.077780 0.000000 0.490567
v 0.077780 8.620000 0.490567
v 0.053576 0.000000 0.545089
v 0.053576 8.620000 0.545089
v 0.027313 0.000000 0.578663
v 0.027313 8.620000 0.578663
v -0.000000 0.000000 0.590000
v -0.000000 8.620000 0.590000
v -0.027313 0.000000 0.578663
v -0.027313 8.620000 0.578663
v -0.053576 0.000000 0.545089
v -0.053576 8.620000 0.545089
v -0.077780 0.000000 0.490567
v -0.077780 8.620000 0.490567
v -0.098995 0.000000 0.417193
v -0.098995 8.620000 0.417193
v -0.116406 0.000000 0.327787
v -0.116406 8.620000 0.327787
v -0.129343 0.000000 0.225783
v -0.129343 8.620000 0.225783
v -0.137310 0.000000 0.115103
v -0.137310 8.620000 0.115103
v -0.140000 0.000000 -0.000000
v -0.140000 8.620000 -0.000000
v -0.137310 0.000000 -0.115103
v -0.137310 8.620000 -0.115103
v -0.129343 0.000000 -0.225783
v -0.129343 8.620000 -0.225783
v -0.116406 0.000000 -0.327786
v -0.116406 8.620000 -0.327786
v -0.098995 0.000000 -0.417193
v -0.098995 8.620000 -0.417193
v -0.077780 0.000000 -0.490567
v -0.077780 8.620000 -0.490567
v -0.053576 0.000000 -0.545089
v -0.053576 8.620000 -0.545089
v -0.027313 0.000000 -0.578663
v -0.027313 8.620000 -0.578663
vt 2.009536 -0.004768
vt 2.009536 1.000000
vt 1.946738 1.000000
vt 1.946738 -0.004768
vt 1.883940 1.000000
vt 1.883940 -0.004768
vt 1.821142 1.000000
vt 1.821142 -0.004768
vt 1.758344 1.000000
vt 1.758344 -0.004768
vt 1.695546 1.000000
vt 1.695546 -0.004768
vt 1.632748 1.000000
vt 1.632748 -0.004768
vt 1.569950 1.000000
vt 1.569950 -0.004768
vt 1.507152 1.000000
vt 1.507152 -0.004768
vt 1.444354 1.000000
vt 1.444354 -0.004768
vt 1.381556 1.000000
vt 1.381556 -0.004768
vt 1.318758 1.000000
vt 1.318758 -0.004768
vt 1.255960 1.000000
vt 1.255960 -0.004768
vt 1.193162 1.000000
vt 1.193162 -0.004768
vt 1.130364 1.000000
vt 1.130364 -0.004768
vt 1.067566 1.000000
vt 1.067566 -0.004768
vt 1.004768 1.000000
vt 1.004768 -0.004768
vt 0.941970 1.000000
vt 0.941970 -0.004768
vt 0.879172 1.000000
vt 0.879172 -0.004768
vt 0.816374 1.000000
vt 0.816374 -0.004768
vt 0.753576 1.000000
vt 0.753576 -0.004768
vt 0.690778 1.000000
vt 0.690778 -0.004768
vt 0.627980 1.000000
vt 0.627980 -0.004768
vt 0.565182 1.000000
vt 0.565182 -0.004768
vt 0.502384 1.000000
vt 0.502384 -0.004768
vt 0.439586 1.000000
vt 0.439586 -0.004768
vt 0.376788 1.000000
vt 0.376788 -0.004768
vt 0.313990 1.000000
vt 0.313990 -0.004768
vt 0.251192 1.000000
vt 0.251192 -0.004768
vt 0.188394 1.000000
vt 0.188394 -0.004768
vt 0.125596 1.000000
vt 0.125596 -0.004768
vt 0.296822 0.485388
vt 0.250000 0.490000
vt 0.203178 0.485388
vt 0.158156 0.471731
vt 0.116663 0.449553
vt 0.080294 0.419706
vt 0.050447 0.383337
vt 0.028269 0.341844
vt 0.014612 0.296822
vt 0.010000 0.250000
vt 0.014612 0.203178
vt 0.028269 0.158156
vt 0.050447 0.116663
vt 0.080294 0.080294
vt 0.116663 0.050447
vt 0.158156 0.028269
vt 0.203178 0.014612
vt 0.250000 0.010000
vt 0.296822 0.014612
vt 0.341844 0.028269
vt 0.383337 0.050447
vt 0.419706 0.080294
vt 0.449553 0.116663
vt 0.471731 0.158156
vt 0.485388 0.203178
vt 0.490000 0.250000
vt 0.485388 0.296822
vt 0.471731 0.341844
vt 0.449553 0.383337
vt 0.419706 0.419706
vt 0.383337 0.449553
vt 0.341844 0.471731
vt 0.062798 1.000000
vt 0.062798 -0.004768
vt 0.000000 1.000000
vt 0.000000 -0.004768
vt 0.750000 0.490000
vt 0.796822 0.485388
vt 0.841844 0.471731
vt 0.883337 0.449553
vt 0.919706 0.419706
vt 0.949553 0.383337
vt 0.971731 0.341844
vt 0.985388 0.296822
vt 0.990000 0.250000
vt 0.985388 0.203178
vt 0.971731 0.158156
vt 0.949553 0.116663
vt 0.919706 0.080294
vt 0.883337 0.050447
vt 0.841844 0.028269
vt 0.796822 0.014612
vt 0.750000 0.010000
vt 0.703178 0.014612
vt 0.658156 0.028269
vt 0.616663 0.050447
vt 0.580294 0.080294
vt 0.550447 0.116663
vt 0.528269 0.158156
vt 0.514612 0.203178
vt 0.510000 0.250000
vt 0.514612 0.296822
vt 0.528269 0.341844
vt 0.550447 0.383337
vt 0.580294 0.419706
vt 0.616663 0.449553
vt 0.658156 0.471731
vt 0.703178 0.485388
vn 0.3834 0.0000 -0.9236
vn 0.7876 0.0000 -0.6161
vn 0.9140 0.0000 -0.4057
vn 0.9607 0.0000 -0.2778
vn 0.9816 0.0000 -0.1911
vn 0.9921 0.0000 -0.1258
vn 0.9974 0.0000 -0.0718
vn 0.9997 0.0000 -0.0234
vn 0.9997 0.0000 0.0234
vn 0.9974 0.0000 0.0718
vn 0.9921 0.0000 0.1258
vn 0.9816 0.0000 0.1911
vn 0.9607 0.0000 0.2778
vn 0.9140 0.0000 0.4057
vn 0.7876 0.0000 0.6161
vn 0.3834 0.0000 0.9236
vn -0.3834 0.0000 0.9236
vn -0.7876 0.0000 0.6161
vn -0.9140 0.0000 0.4057
vn -0.9607 0.0000 0.2778
vn -0.9816 0.0000 0.1911
vn -0.9921 0.0000 0.1258
vn -0.9974 0.0000 0.0718
vn -0.9997 0.0000 0.0234
vn -0.9997 0.0000 -0.0234
vn -0.9974 0.0000 -0.0718
vn -0.9921 0.0000 -0.1258
vn -0.9816 0.0000 -0.1911
vn -0.9607 0.0000 -0.2778
vn -0.9140 0.0000 -0.4057
vn 0.0000 1.0000 0.0000
vn -0.7876 0.0000 -0.6161
vn -0.3834 0.0000 -0.9236
vn 0.0000 -1.0000 0.0000
usemtl Material.001
s off
f 1/1/1 2/2/1 4/3/1 3/4/1
f 3/4/2 4/3/2 6/5/2 5/6/2
f 5/6/3 6/5/3 8/7/3 7/8/3
f 7/8/4 8/7/4 10/9/4 9/10/4
f 9/10/5 10/9/5 12/11/5 11/12/5
f 11/12/6 12/11/6 14/13/6 13/14/6
f 13/14/7 14/13/7 16/15/7 15/16/7
f 15/16/8 16/15/8 18/17/8 17/18/8
f 17/18/9 18/17/9 20/19/9 19/20/9
f 19/20/10 20/19/10 22/21/10 21/22/10
f 21/22/11 22/21/11 24/23/11 23/24/11
f 23/24/12 24/23/12 26/25/12 25/26/12
f 25/26/13 26/25/13 28/27/13 27/28/13
f 27/28/14 28/27/14 30/29/14 29/30/14
f 29/30/15 30/29/15 32/31/15 31/32/15
f 31/32/16 32/31/16 34/33/16 33/34/16
f 33/34/17 34/33/17 36/35/17 35/36/17
f 35/36/18 36/35/18 38/37/18 37/38/18
f 37/38/19 38/37/19 40/39/19 39/40/19
f 39/40/20 40/39/20 42/41/20 41/42/20
f 41/42/21 42/41/21 44/43/21 43/44/21
f 43/44/22 44/43/22 46/45/22 45/46/22
f 45/46/23 46/45/23 48/47/23 47/48/23
f 47/48/24 48/47/24 50/49/24 49/50/24
f 49/50/25 50/49/25 52/51/25 51/52/25
f 51/52/26 52/51/26 54/53/26 53/54/26
f 53/54/27 54/53/27 56/55/27 55/56/27
f 55/56/28 56/55/28 58/57/28 57/58/28
f 57/58/29 58/57/29 60/59/29 59/60/29
f 59/60/30 60/59/30 62/61/30 61/62/30
f 4/63/31 2/64/31 64/65/31 62/66/31 60/67/31 58/68/31 56/69/31 54/70/31 52/71/31 50/72/31 48/73/31 46/74/31 44/75/31 42/76/31 40/77/31 38/78/31 36/79/31 34/80/31 32/81/31 30/82/31 28/83/31 26/84/31 24/85/31 22/86/31 20/87/31 18/88/31 16/89/31 14/90/31 12/91/31 10/92/31 8/93/31 6/94/31
f 61/62/32 62/61/32 64/95/32 63/96/32
f 63/96/33 64/95/33 2/97/33 1/98/33
f 1/99/34 3/100/34 5/101/34 7/102/34 9/103/34 11/104/34 13/105/34 15/106/34 17/107/34 19/108/34 21/109/34 23/110/34 25/111/34 27/112/34 29/113/34 31/114/34 33/115/34 35/116/34 37/117/34 39/118/34 41/119/34 43/120/34 45/121/34 47/122/34 49/123/34 51/124/34 53/125/34 55/126/34 57/127/34 59/128/34 61/129/34 63/130/34
o Cube_Cube.001
v 0.313000 8.531000 3.577000
v 0.313000 13.101000 3.577000
v 0.313000 8.531000 -3.577000
v 0.313000 13.101000 -3.577000
vt 0.998007 0.005007
vt 0.997993 0.999007
vt 0.001993 0.998993
vt 0.002007 0.004993
vn 1.0000 0.0000 0.0000
usemtl Material.003
s off
f 67/131/35 68/132/35 66/133/35 65/134/35
o Cube.001_Cube.002
v -0.313000 8.531000 3.577000
v -0.313000 13.101000 3.577000
v -0.313000 8.531000 -3.577000
v -0.313000 13.101000 -3.577000
v 0.313000 8.531000 3.577000
v 0.313000 13.101000 3.577000
v 0.313000 8.531000 -3.577000
v 0.313000 13.101000 -3.577000
vt 0.375000 0.000000
vt 0.625000 0.000000
vt 0.625000 0.250000
vt 0.375000 0.250000
vt 0.625000 0.500000
vt 0.375000 0.500000
vt 0.375000 0.750000
vt 0.625000 0.750000
vt 0.625000 1.000000
vt 0.375000 1.000000
vt 0.125000 0.500000
vt 0.125000 0.750000
vt 0.875000 0.500000
vt 0.875000 0.750000
vn -1.0000 0.0000 0.0000
vn 0.0000 0.0000 -1.0000
vn 0.0000 0.0000 1.0000
vn 0.0000 -1.0000 0.0000
vn 0.0000 1.0000 0.0000
usemtl Material.002
s off
f 69/135/36 70/136/36 72/137/36 71/138/36
f 71/138/37 72/137/37 76/139/37 75/140/37
f 73/141/38 74/142/38 70/143/38 69/144/38
f 71/145/39 75/140/39 73/141/39 69/146/39
f 76/139/40 72/147/40 70/148/40 74/142/40
