# Blender v3.1.2 OBJ File: 'puertablanca.blend'
# www.blender.org
mtllib sinpuerta.mtl
o Cube.001_Cube.002
v 3.429999 -3.529000 0.360000
v 3.429999 6.715000 0.360000
v 3.429999 -3.529000 -0.360000
v 3.429999 6.715000 -0.360000
v 4.482000 -3.529000 0.360000
v 4.482000 6.715000 0.360000
v 4.482000 -3.529000 -0.360000
v 4.482000 6.715000 -0.360000
vt 0.375000 0.000000
vt 0.625000 0.000000
vt 0.625000 0.250000
vt 0.375000 0.250000
vt -1.161975 0.672489
vt 0.990328 0.672489
vt 0.990328 0.992094
vt -1.161975 0.992094
vt 0.375000 0.500000
vt 0.625000 0.500000
vt 0.625000 0.750000
vt 0.375000 0.750000
vt -0.482196 0.610309
vt 0.980578 0.610309
vt 0.980578 1.000000
vt -0.482196 1.000000
vt 0.125000 0.500000
vt 0.125000 0.750000
vt 0.875000 0.500000
vt 0.875000 0.750000
vn -1.0000 0.0000 0.0000
vn 0.0000 0.0000 -1.0000
vn 1.0000 0.0000 0.0000
vn 0.0000 0.0000 1.0000
vn 0.0000 -1.0000 0.0000
vn 0.0000 1.0000 0.0000
usemtl Material.001
s off
f 1/1/1 2/2/1 4/3/1 3/4/1
f 3/5/2 4/6/2 8/7/2 7/8/2
f 7/9/3 8/10/3 6/11/3 5/12/3
f 5/13/4 6/14/4 2/15/4 1/16/4
f 3/17/5 7/9/5 5/12/5 1/18/5
f 8/10/6 4/19/6 2/20/6 6/11/6
o Cube.002_Cube.003
v -0.040000 3.560000 0.360000
v -0.040000 6.720000 0.360000
v -0.040000 3.560000 -0.360000
v -0.040000 6.720000 -0.360000
v 3.432000 3.560000 0.360000
v 3.432000 6.720000 0.360000
v 3.432000 3.560000 -0.360000
v 3.432000 6.720000 -0.360000
vt 0.944312 -1.720788
vt 1.838169 -1.720788
vt 1.838169 -0.826931
vt 0.944312 -0.826931
vt 1.838169 0.066926
vt 0.944312 0.066926
vt 1.838169 0.960782
vt 0.944312 0.960782
vt 1.838169 1.854639
vt 0.944312 1.854639
vt 0.050455 0.066926
vt 0.050455 0.960782
vt 2.732025 0.066926
vt 2.732025 0.960782
vn -1.0000 0.0000 0.0000
vn 0.0000 0.0000 -1.0000
vn 1.0000 0.0000 0.0000
vn 0.0000 0.0000 1.0000
vn 0.0000 -1.0000 0.0000
vn 0.0000 1.0000 0.0000
usemtl Material.001
s off
f 9/21/7 10/22/7 12/23/7 11/24/7
f 11/24/8 12/23/8 16/25/8 15/26/8
f 15/26/9 16/25/9 14/27/9 13/28/9
f 13/28/10 14/27/10 10/29/10 9/30/10
f 11/31/11 15/26/11 13/28/11 9/32/11
f 16/25/12 12/33/12 10/34/12 14/27/12
