# Blender v3.1.2 OBJ File: 'EdificioVilla.blend'
# www.blender.org
mtllib Ventanas.mtl
o building_001.001_building_001_mesh.002
v -4.090000 26.034998 8.644999
v -4.090000 26.034998 10.544999
v -4.090000 23.314997 10.544999
v -4.090000 23.314997 8.644999
v -4.090000 22.764997 8.644999
v -4.090000 22.764997 10.544999
v -4.090000 20.044998 10.544999
v -4.090000 20.044998 8.644999
v -4.090000 19.495001 8.644999
v -4.090000 19.495001 10.544999
v -4.090000 16.775000 10.544999
v -4.090000 16.775000 8.644999
v -4.090000 16.225000 8.644999
v -4.090000 16.225000 10.544999
v -4.090000 13.505001 10.544999
v -4.090000 13.505001 8.644999
v 4.090000 3.145000 10.544999
v 4.090000 3.145000 8.644999
v 4.090000 0.425000 8.644999
v 4.090000 0.425000 10.544999
v -4.090000 12.955000 8.644999
v -4.090000 12.955000 10.544999
v -4.090000 10.235001 10.544999
v -4.090000 10.235001 8.644999
v -4.090000 9.685000 8.644999
v -4.090000 9.685000 10.544999
v -4.090000 6.965001 10.544999
v -4.090000 6.965001 8.644999
v -4.090000 6.415000 8.644999
v -4.090000 6.415000 10.544999
v -4.090000 3.695000 10.544999
v -4.090000 3.695000 8.644999
v -4.090000 0.425000 -10.530000
v -4.090000 0.425000 -8.629998
v -4.090000 3.145000 -8.629998
v -4.090000 3.145000 -10.530000
v -4.090000 3.695000 -10.530000
v -4.090000 3.695000 -8.629998
v -4.090000 6.415000 -8.629998
v -4.090000 6.415000 -10.530000
v -4.090000 6.965001 -10.530000
v -4.090000 6.965001 -8.629998
v -4.090000 9.685000 -8.629998
v -4.090000 9.685000 -10.530000
v -4.090000 10.235001 -10.530000
v -4.090000 10.235001 -8.629998
v -4.090000 12.955000 -8.629998
v -4.090000 12.955000 -10.530000
v -4.090000 3.145000 8.644999
v -4.090000 3.145000 10.544999
v -4.090000 0.425000 10.544999
v -4.090000 0.425000 8.644999
v -4.090000 13.505001 -10.530000
v -4.090000 13.505001 -8.629998
v -4.090000 16.225000 -8.629998
v -4.090000 16.225000 -10.530000
v -4.090000 16.775000 -10.530000
v -4.090000 16.775000 -8.629998
v -4.090000 19.495001 -8.629998
v -4.090000 19.495001 -10.530000
v -4.090000 20.044998 -10.530000
v -4.090000 20.044998 -8.629998
v -4.090000 22.764997 -8.629998
v -4.090000 22.764997 -10.530000
v -4.090000 23.314997 -10.530000
v -4.090000 23.314997 -8.629998
v -4.090000 26.034998 -8.629998
v -4.090000 26.034998 -10.530000
v -4.090000 26.584995 -10.530000
v -4.090000 26.584995 -8.629998
v -4.090000 29.304995 -8.629998
v -4.090000 29.304995 -10.530000
v -4.090000 26.584995 8.644999
v -4.090000 26.584995 10.544999
v -4.090000 29.304995 10.544999
v -4.090000 29.304995 8.644999
v 4.090000 0.425000 -8.629998
v 4.090000 0.425000 -10.530000
v 4.090000 3.145000 -10.530000
v 4.090000 3.145000 -8.629998
v 4.090000 3.695000 10.544999
v 4.090000 3.695000 8.644999
v 4.090000 6.415000 8.644999
v 4.090000 6.415000 10.544999
v 4.090000 3.695000 -8.629998
v 4.090000 3.695000 -10.530000
v 4.090000 6.415000 -10.530000
v 4.090000 6.415000 -8.629998
v 4.090000 6.965001 10.544999
v 4.090000 6.965001 8.644999
v 4.090000 9.685000 8.644999
v 4.090000 9.685000 10.544999
v 4.090000 6.965001 -8.629998
v 4.090000 6.965001 -10.530000
v 4.090000 9.685000 -10.530000
v 4.090000 9.685000 -8.629998
v 4.090000 10.235001 10.544999
v 4.090000 10.235001 8.644999
v 4.090000 12.955000 8.644999
v 4.090000 12.955000 10.544999
v 4.090000 10.235001 -8.629998
v 4.090000 10.235001 -10.530000
v 4.090000 12.955000 -10.530000
v 4.090000 12.955000 -8.629998
v 4.090000 13.505001 10.544999
v 4.090000 13.505001 8.644999
v 4.090000 16.225000 8.644999
v 4.090000 16.225000 10.544999
v 4.090000 13.505001 -8.629998
v 4.090000 13.505001 -10.530000
v 4.090000 16.225000 -10.530000
v 4.090000 16.225000 -8.629998
v 4.090000 16.775000 -8.629998
v 4.090000 16.775000 -10.530000
v 4.090000 19.495001 -10.530000
v 4.090000 19.495001 -8.629998
v 4.090000 16.775000 10.544999
v 4.090000 16.775000 8.644999
v 4.090000 19.495001 8.644999
v 4.090000 19.495001 10.544999
v 4.090000 20.044998 -8.629998
v 4.090000 20.044998 -10.530000
v 4.090000 22.764997 -10.530000
v 4.090000 22.764997 -8.629998
v 4.090000 20.044998 10.544999
v 4.090000 20.044998 8.644999
v 4.090000 22.764997 8.644999
v 4.090000 22.764997 10.544999
v 4.090000 23.314997 10.544999
v 4.090000 23.314997 8.644999
v 4.090000 26.034998 8.644999
v 4.090000 26.034998 10.544999
v 4.090000 23.314997 -8.629998
v 4.090000 23.314997 -10.530000
v 4.090000 26.034998 -10.530000
v 4.090000 26.034998 -8.629998
v 4.090000 26.584995 10.544999
v 4.090000 26.584995 8.644999
v 4.090000 29.304995 8.644999
v 4.090000 29.304995 10.544999
v 4.090000 26.584995 -8.629998
v 4.090000 26.584995 -10.530000
v 4.090000 29.304995 -10.530000
v 4.090000 29.304995 -8.629998
v -5.090000 0.395000 4.400000
v -5.090000 0.395000 5.949999
v -5.090000 3.175000 5.949999
v -5.090000 3.175000 4.400000
v -5.090000 3.665000 4.400000
v -5.090000 3.665000 5.949999
v -5.090000 6.445000 5.949999
v -5.090000 6.445000 4.400000
v -5.090000 6.935000 4.400000
v -5.090000 6.935000 5.949999
v -5.090000 9.715001 5.949999
v -5.090000 9.715001 4.400000
v -5.090000 10.205000 4.400000
v -5.090000 10.205000 5.949999
v -5.090000 12.985000 5.949999
v -5.090000 12.985000 4.400000
v -5.090000 13.475000 4.400000
v -5.090000 13.475000 5.949999
v -5.090000 16.254999 5.949999
v -5.090000 16.254999 4.400000
v -5.090000 16.745001 4.400000
v -5.090000 16.745001 5.949999
v -5.090000 19.524998 5.949999
v -5.090000 19.524998 4.400000
v -5.090000 20.014999 4.400000
v -5.090000 20.014999 5.949999
v -5.090000 22.794998 5.949999
v -5.090000 22.794998 4.400000
v -5.090000 23.284998 4.400000
v -5.090000 23.284998 5.949999
v -5.090000 26.064995 5.949999
v -5.090000 26.064995 4.400000
v -5.090000 26.554996 4.400000
v -5.090000 26.554996 5.949999
v -5.090000 29.334995 5.949999
v -5.090000 29.334995 4.400000
v -5.100000 0.395000 -5.974999
v -5.100000 0.395000 -4.244999
v -5.100000 3.175000 -4.244999
v -5.100000 3.175000 -5.974999
v -5.100000 3.665000 -5.974999
v -5.100000 3.665000 -4.244999
v -5.100000 6.445000 -4.244999
v -5.100000 6.445000 -5.974999
v -5.100000 6.935000 -5.974999
v -5.100000 6.935000 -4.244999
v -5.100000 9.715000 -4.244999
v -5.100000 9.715000 -5.974999
v -5.100000 10.205001 -5.974999
v -5.100000 10.205001 -4.244999
v -5.100000 12.985001 -4.244999
v -5.100000 12.985001 -5.974999
v -5.100000 13.475001 -5.974999
v -5.100000 13.475001 -4.244999
v -5.100000 16.255001 -4.244999
v -5.100000 16.255001 -5.974999
v -5.100000 16.744999 -5.974999
v -5.100000 16.744999 -4.244999
v -5.100000 19.525000 -4.244999
v -5.100000 19.525000 -5.974999
v -5.100000 20.014997 -5.974999
v -5.100000 20.014997 -4.244999
v -5.100000 22.794996 -4.244999
v -5.100000 22.794996 -5.974999
v -5.100000 23.284996 -5.974999
v -5.100000 23.284996 -4.244999
v -5.100000 26.064997 -4.244999
v -5.100000 26.064997 -5.974999
v -5.100000 26.554995 -5.974999
v -5.100000 26.554995 -4.244999
v -5.100000 29.334993 -4.244999
v -5.100000 29.334993 -5.974999
v -5.100000 26.554995 -1.906250
v -5.100000 26.554995 -0.176250
v -5.100000 29.334993 -0.176250
v -5.100000 29.334993 -1.906250
v -5.100000 23.284996 -1.906250
v -5.100000 23.284996 -0.176250
v -5.100000 26.064997 -0.176250
v -5.100000 26.064997 -1.906250
v -5.100000 20.014997 -1.906250
v -5.100000 20.014997 -0.176250
v -5.100000 22.794996 -0.176250
v -5.100000 22.794996 -1.906250
v -5.100000 16.744999 -1.906250
v -5.100000 16.744999 -0.176250
v -5.100000 19.525000 -0.176250
v -5.100000 19.525000 -1.906250
v -5.100000 13.475001 -1.906250
v -5.100000 13.475001 -0.176250
v -5.100000 16.255001 -0.176250
v -5.100000 16.255001 -1.906250
v -5.100000 10.205001 -1.906250
v -5.100000 10.205001 -0.176250
v -5.100000 12.985001 -0.176250
v -5.100000 12.985001 -1.906250
v -5.100000 6.935000 -1.906250
v -5.100000 6.935000 -0.176250
v -5.100000 9.715000 -0.176250
v -5.100000 9.715000 -1.906250
v -5.100000 3.665000 -1.906250
v -5.100000 3.665000 -0.176250
v -5.100000 6.445000 -0.176250
v -5.100000 6.445000 -1.906250
v -5.100000 3.665000 0.176250
v -5.100000 3.665000 1.906250
v -5.100000 6.445000 1.906250
v -5.100000 6.445000 0.176250
v -5.100000 6.935000 0.176250
v -5.100000 6.935000 1.906250
v -5.100000 9.715000 1.906250
v -5.100000 9.715000 0.176250
v -5.100000 10.205001 0.176250
v -5.100000 10.205001 1.906250
v -5.100000 12.985001 1.906250
v -5.100000 12.985001 0.176250
v -5.100000 13.475001 0.176250
v -5.100000 13.475001 1.906250
v -5.100000 16.255001 1.906250
v -5.100000 16.255001 0.176250
v -5.100000 16.744999 0.176250
v -5.100000 16.744999 1.906250
v -5.100000 19.525000 1.906250
v -5.100000 19.525000 0.176250
v -5.100000 20.014997 0.176250
v -5.100000 20.014997 1.906250
v -5.100000 22.794996 1.906250
v -5.100000 22.794996 0.176250
v -5.100000 23.284996 0.176250
v -5.100000 23.284996 1.906250
v -5.100000 26.064997 1.906250
v -5.100000 26.064997 0.176250
v -5.100000 26.554995 0.176250
v -5.100000 26.554995 1.906250
v -5.100000 29.334993 1.906250
v -5.100000 29.334993 0.176250
v -4.160000 0.301100 1.930000
v -4.160000 0.301100 -1.930000
v -4.160000 2.941100 1.930000
v -4.160000 2.941100 -1.930000
v -4.160000 2.941100 0.000000
v -4.160000 0.301100 0.000000
vt 0.737500 -3.110000
vt 0.262500 -3.110000
vt 0.262500 -2.430000
vt 0.737500 -2.430000
vt 0.737500 -2.701250
vt 0.262500 -2.701250
vt 0.262500 -2.021249
vt 0.737500 -2.021249
vt 0.737500 -2.292500
vt 0.262500 -2.292500
vt 0.262500 -1.612500
vt 0.737500 -1.612500
vt 0.737500 -1.883749
vt 0.262500 -1.883749
vt 0.262500 -1.203750
vt 0.737500 -1.203750
vt 0.737500 -1.474999
vt 0.262500 -1.474999
vt 0.262500 -0.794999
vt 0.737500 -0.794999
vt 0.737500 -1.066249
vt 0.262500 -1.066249
vt 0.262500 -0.386249
vt 0.737500 -0.386249
vt 0.737500 -0.657500
vt 0.262500 -0.657500
vt 0.262500 0.022500
vt 0.737500 0.022500
vt 0.737500 -0.248750
vt 0.262500 -0.248750
vt 0.262500 0.431251
vt 0.737500 0.431251
vt 0.737500 0.160000
vt 0.262500 0.160000
vt 0.262500 0.840000
vt 0.737500 0.840000
vt 0.737500 -3.110000
vt 0.262500 -3.110000
vt 0.262500 -2.430000
vt 0.737500 -2.430000
vt 0.737500 -2.701250
vt 0.262500 -2.701250
vt 0.262500 -2.021249
vt 0.737500 -2.021249
vt 0.737500 -2.292500
vt 0.262500 -2.292500
vt 0.262500 -1.612500
vt 0.737500 -1.612500
vt 0.737500 -1.883749
vt 0.262500 -1.883749
vt 0.262500 -1.203750
vt 0.737500 -1.203750
vt 0.737500 -1.474999
vt 0.262500 -1.474999
vt 0.262500 -0.794999
vt 0.737500 -0.794999
vt 0.737500 -1.066249
vt 0.262500 -1.066249
vt 0.262500 -0.386249
vt 0.737500 -0.386249
vt 0.737500 -0.657500
vt 0.262500 -0.657500
vt 0.262500 0.022500
vt 0.737500 0.022500
vt 0.737500 -0.248750
vt 0.262500 -0.248750
vt 0.262500 0.431251
vt 0.737500 0.431251
vt 0.737500 0.160000
vt 0.262500 0.160000
vt 0.262500 0.840000
vt 0.737500 0.840000
vt -2.134375 -3.110000
vt -1.659374 -3.110000
vt -1.659374 -2.430000
vt -2.134375 -2.430000
vt 2.518382 -3.302353
vt 2.993382 -3.302353
vt 2.993382 -2.622353
vt 2.518382 -2.622353
vt -2.134375 -2.701250
vt -1.659375 -2.701250
vt -1.659375 -2.021249
vt -2.134375 -2.021249
vt 2.499583 -2.892000
vt 2.974583 -2.892000
vt 2.974583 -2.211999
vt 2.499583 -2.211999
vt -2.134375 -2.292500
vt -1.659375 -2.292500
vt -1.659375 -1.612500
vt -2.134375 -1.612500
vt 2.475000 -2.481153
vt 2.950000 -2.481153
vt 2.950000 -1.801153
vt 2.475000 -1.801153
vt -2.134375 -1.883750
vt -1.659375 -1.883750
vt -1.659375 -1.203750
vt -2.134375 -1.203750
vt 2.441477 -2.069545
vt 2.916477 -2.069545
vt 2.916477 -1.389545
vt 2.441477 -1.389545
vt -2.134375 -1.474999
vt -1.659374 -1.474999
vt -1.659374 -0.794999
vt -2.134375 -0.794999
vt 2.393055 -1.656666
vt 2.868056 -1.656666
vt 2.868056 -0.976666
vt 2.393055 -0.976666
vt 2.659374 -1.066249
vt 3.134375 -1.066249
vt 3.134375 -0.386249
vt 2.659374 -0.386249
vt -1.791964 -1.241428
vt -1.316964 -1.241428
vt -1.316964 -0.561428
vt -1.791964 -0.561428
vt 2.659374 -0.657499
vt 3.134375 -0.657499
vt 3.134375 0.022501
vt 2.659374 0.022501
vt -1.655000 -0.821000
vt -1.180000 -0.821000
vt -1.180000 -0.141000
vt -1.655000 -0.141000
vt -2.134375 -0.248750
vt -1.659375 -0.248750
vt -1.659375 0.431251
vt -2.134375 0.431251
vt 1.860416 -0.385000
vt 2.335417 -0.385000
vt 2.335417 0.295001
vt 1.860416 0.295001
vt -2.134375 0.160000
vt -1.659375 0.160000
vt -1.659375 0.840000
vt -2.134375 0.840000
vt 0.262500 0.160000
vt 0.737500 0.160000
vt 0.737500 0.840000
vt 0.262500 0.840000
vt 0.932083 -3.117500
vt 0.544583 -3.117500
vt 0.544583 -2.422500
vt 0.932083 -2.422500
vt 0.928359 -2.708750
vt 0.540859 -2.708750
vt 0.540859 -2.013750
vt 0.928359 -2.013750
vt 0.923571 -2.300000
vt 0.536072 -2.300000
vt 0.536072 -1.605000
vt 0.923571 -1.605000
vt 0.917187 -1.891250
vt 0.529688 -1.891250
vt 0.529688 -1.196250
vt 0.917187 -1.196250
vt 0.908250 -1.482499
vt 0.520750 -1.482499
vt 0.520750 -0.787499
vt 0.908250 -0.787499
vt 0.894844 -1.073749
vt 0.507344 -1.073749
vt 0.507344 -0.378750
vt 0.894844 -0.378750
vt 0.872500 -0.665000
vt 0.485000 -0.665000
vt 0.485000 0.030000
vt 0.872500 0.030000
vt 0.827812 -0.256249
vt 0.440313 -0.256249
vt 0.440313 0.438750
vt 0.827812 0.438750
vt 0.693750 0.152500
vt 0.306250 0.152500
vt 0.306250 0.847500
vt 0.693750 0.847500
vt 0.463472 -3.117500
vt 0.030972 -3.117500
vt 0.030972 -2.422500
vt 0.463472 -2.422500
vt 0.467422 -2.708750
vt 0.034922 -2.708750
vt 0.034922 -2.013750
vt 0.467422 -2.013750
vt 0.472500 -2.300000
vt 0.040000 -2.300000
vt 0.040000 -1.605000
vt 0.472500 -1.605000
vt 0.479271 -1.891249
vt 0.046771 -1.891249
vt 0.046771 -1.196249
vt 0.479271 -1.196249
vt 0.488750 -1.482499
vt 0.056250 -1.482499
vt 0.056250 -0.787499
vt 0.488750 -0.787499
vt 0.502969 -1.073750
vt 0.070469 -1.073750
vt 0.070469 -0.378749
vt 0.502969 -0.378749
vt 0.526667 -0.664999
vt 0.094167 -0.664999
vt 0.094167 0.030000
vt 0.526667 0.030000
vt 0.574063 -0.256249
vt 0.141562 -0.256249
vt 0.141562 0.438751
vt 0.574063 0.438751
vt 0.716250 0.152500
vt 0.283750 0.152500
vt 0.283750 0.847500
vt 0.716250 0.847500
vt 0.976562 3.013749
vt 0.544062 3.013749
vt 0.544062 3.708748
vt 0.976562 3.708748
vt 0.993917 2.386999
vt 0.561417 2.386999
vt 0.561417 3.081999
vt 0.993917 3.081999
vt 1.013750 1.729106
vt 0.581250 1.729106
vt 0.581250 2.424106
vt 1.013750 2.424106
vt 1.036635 1.032884
vt 0.604135 1.032884
vt 0.604135 1.727885
vt 1.036635 1.727885
vt 1.063333 0.288750
vt 0.630833 0.288750
vt 0.630833 0.983750
vt 1.063333 0.983750
vt 1.094886 -0.516363
vt 0.662386 -0.516363
vt 0.662386 0.178637
vt 1.094886 0.178637
vt 1.132750 -1.400750
vt 0.700250 -1.400750
vt 0.700250 -0.705750
vt 1.132750 -0.705750
vt 1.179028 -2.390833
vt 0.746528 -2.390833
vt 0.746528 -1.695833
vt 1.179028 -1.695833
vt 0.716250 -2.708750
vt 0.283750 -2.708750
vt 0.283750 -2.013750
vt 0.716250 -2.013750
vt 0.716250 -2.300000
vt 0.283750 -2.300000
vt 0.283750 -1.605000
vt 0.716250 -1.605000
vt 0.716250 -1.891249
vt 0.283750 -1.891249
vt 0.283750 -1.196249
vt 0.716250 -1.196249
vt 0.716250 -1.482499
vt 0.283750 -1.482499
vt 0.283750 -0.787499
vt 0.716250 -0.787499
vt 0.716250 -1.073750
vt 0.283750 -1.073750
vt 0.283750 -0.378749
vt 0.716250 -0.378749
vt 0.716250 -0.664999
vt 0.283750 -0.664999
vt 0.283750 0.030000
vt 0.716250 0.030000
vt 0.716250 -0.256249
vt 0.283750 -0.256249
vt 0.283750 0.438751
vt 0.716250 0.438751
vt 0.716250 0.152500
vt 0.283750 0.152500
vt 0.283750 0.847500
vt 0.716250 0.847500
vt 0.500000 0.170000
vt 0.017500 0.170000
vt 0.017500 0.830000
vt 0.500000 0.830000
vt 0.982500 0.170000
vt 0.982500 0.830000
vn -1.0000 0.0000 0.0000
vn 1.0000 0.0000 0.0000
usemtl Material.007
s off
f 33/1/1 34/2/1 35/3/1 36/4/1
f 37/5/1 38/6/1 39/7/1 40/8/1
f 41/9/1 42/10/1 43/11/1 44/12/1
f 45/13/1 46/14/1 47/15/1 48/16/1
f 53/17/1 54/18/1 55/19/1 56/20/1
f 57/21/1 58/22/1 59/23/1 60/24/1
f 61/25/1 62/26/1 63/27/1 64/28/1
f 65/29/1 66/30/1 67/31/1 68/32/1
f 69/33/1 70/34/1 71/35/1 72/36/1
f 52/37/1 51/38/1 50/39/1 49/40/1
f 32/41/1 31/42/1 30/43/1 29/44/1
f 28/45/1 27/46/1 26/47/1 25/48/1
f 24/49/1 23/50/1 22/51/1 21/52/1
f 16/53/1 15/54/1 14/55/1 13/56/1
f 12/57/1 11/58/1 10/59/1 9/60/1
f 8/61/1 7/62/1 6/63/1 5/64/1
f 4/65/1 3/66/1 2/67/1 1/68/1
f 73/69/1 74/70/1 75/71/1 76/72/1
f 20/73/2 19/74/2 18/75/2 17/76/2
f 77/77/2 78/78/2 79/79/2 80/80/2
f 81/81/2 82/82/2 83/83/2 84/84/2
f 85/85/2 86/86/2 87/87/2 88/88/2
f 89/89/2 90/90/2 91/91/2 92/92/2
f 93/93/2 94/94/2 95/95/2 96/96/2
f 97/97/2 98/98/2 99/99/2 100/100/2
f 101/101/2 102/102/2 103/103/2 104/104/2
f 105/105/2 106/106/2 107/107/2 108/108/2
f 109/109/2 110/110/2 111/111/2 112/112/2
f 113/113/2 114/114/2 115/115/2 116/116/2
f 117/117/2 118/118/2 119/119/2 120/120/2
f 121/121/2 122/122/2 123/123/2 124/124/2
f 125/125/2 126/126/2 127/127/2 128/128/2
f 129/129/2 130/130/2 131/131/2 132/132/2
f 133/133/2 134/134/2 135/135/2 136/136/2
f 137/137/2 138/138/2 139/139/2 140/140/2
f 141/141/2 142/142/2 143/143/2 144/144/2
f 145/145/1 146/146/1 147/147/1 148/148/1
f 149/149/1 150/150/1 151/151/1 152/152/1
f 153/153/1 154/154/1 155/155/1 156/156/1
f 157/157/1 158/158/1 159/159/1 160/160/1
f 161/161/1 162/162/1 163/163/1 164/164/1
f 165/165/1 166/166/1 167/167/1 168/168/1
f 169/169/1 170/170/1 171/171/1 172/172/1
f 173/173/1 174/174/1 175/175/1 176/176/1
f 177/177/1 178/178/1 179/179/1 180/180/1
f 181/181/1 182/182/1 183/183/1 184/184/1
f 185/185/1 186/186/1 187/187/1 188/188/1
f 189/189/1 190/190/1 191/191/1 192/192/1
f 193/193/1 194/194/1 195/195/1 196/196/1
f 197/197/1 198/198/1 199/199/1 200/200/1
f 201/201/1 202/202/1 203/203/1 204/204/1
f 205/205/1 206/206/1 207/207/1 208/208/1
f 209/209/1 210/210/1 211/211/1 212/212/1
f 213/213/1 214/214/1 215/215/1 216/216/1
f 217/217/1 218/218/1 219/219/1 220/220/1
f 221/221/1 222/222/1 223/223/1 224/224/1
f 225/225/1 226/226/1 227/227/1 228/228/1
f 229/229/1 230/230/1 231/231/1 232/232/1
f 233/233/1 234/234/1 235/235/1 236/236/1
f 237/237/1 238/238/1 239/239/1 240/240/1
f 241/241/1 242/242/1 243/243/1 244/244/1
f 245/245/1 246/246/1 247/247/1 248/248/1
f 249/249/1 250/250/1 251/251/1 252/252/1
f 253/253/1 254/254/1 255/255/1 256/256/1
f 257/257/1 258/258/1 259/259/1 260/260/1
f 261/261/1 262/262/1 263/263/1 264/264/1
f 265/265/1 266/266/1 267/267/1 268/268/1
f 269/269/1 270/270/1 271/271/1 272/272/1
f 273/273/1 274/274/1 275/275/1 276/276/1
f 277/277/1 278/278/1 279/279/1 280/280/1
f 286/281/1 281/282/1 283/283/1 285/284/1
f 282/285/1 286/281/1 285/284/1 284/286/1
