# 3ds Max Wavefront OBJ Exporter v0.99 - (c)2007 guruware
# File Created: 20.05.2022 20:29:19

mtllib buroC1.mtl

#
# object Box001
#

v  -18.531836 0.000000 38.505413
v  -18.531836 0.000000 11.219953
v  -3.899281 0.000000 11.219953
v  -3.899281 0.000000 38.505413
v  -18.531836 13.193137 38.505413
v  -3.899281 13.193137 38.505413
v  -3.899281 13.193137 11.219953
v  -18.531836 13.193137 11.219953
# 8 vertices

vn -0.577350 -0.577350 0.577350
vn -0.577350 -0.577350 -0.577350
vn 0.577350 -0.577350 -0.577350
vn 0.577350 -0.577350 0.577350
vn -0.577350 0.577350 0.577350
vn 0.577350 0.577350 0.577350
vn 0.577350 0.577350 -0.577350
vn -0.577350 0.577350 -0.577350
# 8 vertex normals

vt 1.000000 0.000000 0.000000
vt 1.000000 1.000000 0.000000
vt 0.000000 1.000000 0.000000
vt 0.000000 0.000000 0.000000
# 4 texture coords

o Box001
g Box001
usemtl Material__25
s 2
f -8/-4/-8 -7/-3/-7 -6/-2/-6 -5/-1/-5 
s 4
f -4/-1/-4 -3/-4/-3 -2/-3/-2 -1/-2/-1 
s 8
f -8/-1/-8 -5/-4/-5 -3/-3/-3 -4/-2/-4 
s 16
f -5/-1/-5 -6/-4/-6 -2/-3/-2 -3/-2/-3 
s 32
f -6/-1/-6 -7/-4/-7 -1/-3/-1 -2/-2/-2 
s 64
f -7/-1/-7 -8/-4/-8 -4/-3/-4 -1/-2/-1 
# 6 polygons

#
# object Box002
#

v  -19.430943 0.000000 35.595898
v  -19.430943 0.000000 14.129467
v  -17.877468 0.000000 14.129467
v  -17.877468 0.000000 35.595898
v  -19.430943 10.379505 35.595898
v  -17.877468 10.379505 35.595898
v  -17.877468 10.379505 14.129467
v  -19.430943 10.379505 14.129467
# 8 vertices

vn -0.577350 -0.577350 0.577350
vn -0.577350 -0.577350 -0.577350
vn 0.577350 -0.577350 -0.577350
vn 0.577350 -0.577350 0.577350
vn -0.577350 0.577350 0.577350
vn 0.577350 0.577350 0.577350
vn 0.577350 0.577350 -0.577350
vn -0.577350 0.577350 -0.577350
# 8 vertex normals

vt 1.000000 0.000000 0.000000
vt 1.000000 1.000000 0.000000
vt 0.000000 1.000000 0.000000
vt 0.000000 0.000000 0.000000
# 4 texture coords

o Box002
g Box002
usemtl Material__25
s 2
f -8/-4/-8 -7/-3/-7 -6/-2/-6 -5/-1/-5 
s 4
f -4/-1/-4 -3/-4/-3 -2/-3/-2 -1/-2/-1 
s 8
f -8/-1/-8 -5/-4/-5 -3/-3/-3 -4/-2/-4 
s 16
f -5/-1/-5 -6/-4/-6 -2/-3/-2 -3/-2/-3 
s 32
f -6/-1/-6 -7/-4/-7 -1/-3/-1 -2/-2/-2 
s 64
f -7/-1/-7 -8/-4/-8 -4/-3/-4 -1/-2/-1 
# 6 polygons

