# 3ds Max Wavefront OBJ Exporter v0.99 - (c)2007 guruware
# File Created: 23.05.2022 13:25:09

mtllib silla.mtl

#
# object Box016
#

v  261.407318 8.379680 23.494276
v  261.409119 8.379680 28.314541
v  256.588837 8.379680 28.316347
v  256.587036 8.379680 23.496082
v  261.409119 9.208758 28.314541
v  261.407318 9.208758 23.494276
v  256.587036 9.208758 23.496082
v  256.588837 9.208758 28.316347
v  255.846680 8.379680 23.496361
v  255.848480 8.379680 28.316624
v  255.848480 9.208758 28.316624
v  255.846680 9.208758 23.496361
v  256.589111 8.379680 29.056713
v  261.409393 8.379680 29.054907
v  261.409393 9.208758 29.054907
v  256.589111 9.208758 29.056713
v  262.149475 8.379680 28.314262
v  262.147675 8.379680 23.493999
v  262.147675 9.208758 23.493999
v  262.149475 9.208758 28.314262
v  261.407043 8.379680 22.753910
v  256.586761 8.379680 22.755716
v  256.586761 9.208758 22.755716
v  261.407043 9.208758 22.753910
v  255.846680 16.504650 23.496361
v  255.848480 16.504650 28.316624
v  256.588837 16.504650 28.316347
v  256.587036 16.504650 23.496082
v  262.149750 8.379680 29.054630
v  262.149750 9.208758 29.054630
v  255.848755 9.208758 29.056992
v  255.848755 8.379680 29.056992
v  255.846405 8.379680 22.755993
v  255.846405 9.208758 22.755993
v  262.147400 9.208758 22.753632
v  262.147400 8.379680 22.753632
v  262.149475 1.033053 28.314262
v  262.149750 1.033053 29.054630
v  261.409393 1.033053 29.054907
v  261.409119 1.033053 28.314541
v  261.407318 1.033053 23.494276
v  261.407043 1.033053 22.753910
v  262.147400 1.033053 22.753632
v  262.147675 1.033053 23.493999
v  255.846680 1.033053 23.496361
v  255.846405 1.033053 22.755993
v  256.586761 1.033053 22.755716
v  256.587036 1.033053 23.496082
v  256.588837 1.033053 28.316347
v  256.589111 1.033053 29.056713
v  255.848755 1.033053 29.056992
v  255.848480 1.033053 28.316624
v  255.848755 16.504650 29.056992
v  256.589111 16.504650 29.056713
v  256.586761 16.504650 22.755716
v  255.846405 16.504650 22.755993
# 56 vertices

vn -0.301398 -0.904534 0.301624
vn -0.301624 -0.904534 -0.301398
vn 0.301398 -0.904534 -0.301624
vn 0.301624 -0.904534 0.301398
vn 0.000000 1.000000 -0.000000
vn 0.707107 0.707107 -0.000265
vn -0.904421 -0.301511 0.301850
vn -0.904647 -0.301511 -0.301172
vn -1.000000 0.000000 0.000375
vn 0.301850 -0.301511 0.904421
vn -0.301172 -0.301511 0.904647
vn 0.000265 0.707107 0.707107
vn 0.301850 0.301511 0.904421
vn 0.904421 -0.301511 -0.301850
vn 0.904647 -0.301511 0.301172
vn -0.301850 -0.301511 -0.904421
vn 0.301172 -0.301511 -0.904647
vn 0.301172 0.301511 -0.904647
vn -0.000265 0.707107 -0.707107
vn -0.707107 0.707107 0.000265
vn 0.707372 0.000000 0.706842
vn 0.577567 0.577350 0.577134
vn -0.706842 0.000000 0.707372
vn -0.707372 0.000000 -0.706842
vn 0.577134 0.577350 -0.577567
vn 0.706842 0.000000 -0.707372
vn 0.577134 -0.577350 -0.577567
vn 0.577567 -0.577350 0.577134
vn -0.577134 -0.577350 0.577567
vn -0.577567 -0.577350 -0.577134
vn -0.577134 0.577350 0.577567
vn -0.577567 0.577350 -0.577134
# 32 vertex normals

vt 0.882500 0.882500 0.000000
vt 0.117500 0.882500 0.000000
vt 0.117500 0.117500 0.000000
vt 0.882500 0.117500 0.000000
vt 0.117500 0.000000 0.000000
vt 0.882500 0.000000 0.000000
vt 0.882500 1.000000 0.000000
vt 0.117500 1.000000 0.000000
vt 1.000000 0.000000 0.000000
vt 1.000000 1.000000 0.000000
vt 0.000000 1.000000 0.000000
vt 0.000000 0.000000 0.000000
vt 0.000000 0.882500 0.000000
vt 0.000000 0.117500 0.000000
vt 1.000000 0.117500 0.000000
vt 1.000000 0.882500 0.000000
# 16 texture coords

o Box016
g Box016
usemtl Material__31
s 2
f -56/-16/-32 -55/-15/-31 -54/-14/-30 -53/-13/-29 
s 4
f -52/-16/-28 -51/-15/-28 -50/-14/-27 -49/-13/-27 
s 8
f -48/-12/-26 -47/-11/-25 -46/-10/-24 -45/-9/-24 
s 16
f -44/-12/-23 -43/-11/-22 -42/-10/-21 -41/-9/-20 
s 32
f -40/-12/-19 -39/-11/-18 -38/-10/-27 -37/-9/-27 
s 64
f -36/-12/-17 -35/-11/-16 -34/-10/-15 -33/-9/-14 
s 2
f -39/-10/-18 -40/-9/-19 -55/-15/-31 -56/-16/-32 
f -47/-12/-25 -48/-11/-26 -53/-13/-29 -54/-14/-30 
s 4
f -37/-10/-27 -38/-9/-27 -51/-15/-28 -52/-16/-28 
f -32/-12/-13 -31/-11/-13 -30/-13/-27 -29/-14/-27 
s 16
f -43/-11/-22 -28/-8/-12 -27/-7/-11 -42/-10/-21 
f -41/-9/-20 -26/-6/-10 -25/-5/-10 -44/-12/-23 
s 64
f -35/-11/-16 -24/-8/-9 -23/-7/-9 -34/-10/-15 
f -33/-9/-14 -22/-6/-8 -21/-5/-7 -36/-12/-17 
s 2
f -55/-15/-31 -43/-4/-22 -44/-3/-23 -54/-14/-30 
f -53/-13/-29 -35/-2/-16 -36/-1/-17 -56/-16/-32 
s 4
f -51/-15/-28 -33/-4/-14 -34/-3/-15 -50/-14/-27 
f -49/-13/-27 -41/-2/-20 -42/-1/-21 -52/-16/-28 
s 8
f -47/-11/-25 -25/-8/-10 -26/-7/-10 -46/-10/-24 
f -45/-9/-24 -23/-6/-9 -24/-5/-9 -48/-12/-26 
s 32
f -39/-11/-18 -21/-8/-7 -22/-7/-8 -38/-10/-27 
f -37/-9/-27 -27/-6/-11 -28/-5/-12 -40/-12/-19 
s 2
f -20/-9/-6 -19/-6/-5 -18/-4/-4 -17/-15/-3 
f -16/-16/-4 -15/-1/-3 -14/-7/-6 -13/-10/-5 
f -12/-11/-4 -11/-8/-3 -10/-2/-6 -9/-13/-5 
f -8/-14/-6 -7/-3/-5 -6/-5/-4 -5/-12/-3 
s 4
f -38/-9/-27 -22/-6/-8 -33/-4/-14 -51/-15/-28 
f -52/-16/-28 -42/-1/-21 -27/-7/-11 -37/-10/-27 
f -31/-11/-13 -4/-8/-2 -3/-2/-11 -30/-13/-27 
f -29/-14/-27 -2/-3/-8 -1/-5/-1 -32/-12/-13 
s off
f -28/-6/-12 -43/-4/-22 -18/-4/-4 -19/-6/-5 
f -43/-4/-22 -55/-15/-31 -17/-15/-3 -18/-4/-4 
f -55/-15/-31 -40/-9/-19 -20/-9/-6 -17/-15/-3 
f -40/-9/-19 -28/-6/-12 -19/-6/-5 -20/-9/-6 
f -21/-7/-7 -39/-10/-18 -13/-10/-5 -14/-7/-6 
f -39/-10/-18 -56/-16/-32 -16/-16/-4 -13/-10/-5 
f -56/-16/-32 -36/-1/-17 -15/-1/-3 -16/-16/-4 
f -36/-1/-17 -21/-7/-7 -14/-7/-6 -15/-1/-3 
f -24/-8/-9 -35/-2/-16 -10/-2/-6 -11/-8/-3 
f -35/-2/-16 -53/-13/-29 -9/-13/-5 -10/-2/-6 
f -53/-13/-29 -48/-11/-26 -12/-11/-4 -9/-13/-5 
f -48/-11/-26 -24/-8/-9 -11/-8/-3 -12/-11/-4 
f -25/-5/-10 -47/-12/-25 -5/-12/-3 -6/-5/-4 
f -47/-12/-25 -54/-14/-30 -8/-14/-6 -5/-12/-3 
f -54/-14/-30 -44/-3/-23 -7/-3/-5 -8/-14/-6 
f -44/-3/-23 -25/-5/-10 -6/-5/-4 -7/-3/-5 
f -23/-5/-9 -45/-12/-24 -32/-12/-13 -1/-5/-1 
f -45/-12/-24 -46/-11/-24 -31/-11/-13 -32/-12/-13 
f -46/-11/-24 -26/-8/-10 -4/-8/-2 -31/-11/-13 
f -26/-8/-10 -41/-2/-20 -3/-2/-11 -4/-8/-2 
f -41/-2/-20 -49/-13/-27 -30/-13/-27 -3/-2/-11 
f -49/-13/-27 -50/-14/-27 -29/-14/-27 -30/-13/-27 
f -50/-14/-27 -34/-3/-15 -2/-3/-8 -29/-14/-27 
f -34/-3/-15 -23/-5/-9 -1/-5/-1 -2/-3/-8 
# 54 polygons

