# Blender v3.1.2 OBJ File: 'planoVilla.blend'
# www.blender.org
mtllib planoVilla.mtl
o Plane_Plane.003
v -18.730000 0.000000 26.770000
v -8.730000 0.000000 26.770000
v -18.730000 0.000000 10.770000
v -8.730000 0.000000 10.770000
vt 0.000000 0.000000
vt 1.000000 0.000000
vt 1.000000 1.000000
vt 0.000000 1.000000
vn 0.0000 1.0000 0.0000
usemtl Material.001
s off
f 1/1/1 2/2/1 4/3/1 3/4/1
o Plane.001_Plane.004
v 6.390000 0.000000 -0.850000
v 16.510000 0.000000 -0.850000
v 6.390000 0.000000 -8.330000
v 16.510000 0.000000 -8.330000
vt 0.000000 0.000000
vt 1.000000 0.000000
vt 1.000000 1.000000
vt 0.000000 1.000000
vn 0.0000 1.0000 0.0000
usemtl Material.002
s off
f 5/5/2 6/6/2 8/7/2 7/8/2
o Plane.002_Plane.005
v -19.960001 0.000000 9.490000
v -8.400002 0.000000 9.490000
v -19.960001 0.000000 3.490000
v -8.400002 0.000000 3.490000
vt 0.000000 0.000000
vt 1.000000 0.000000
vt 1.000000 1.000000
vt 0.000000 1.000000
vn 0.0000 1.0000 0.0000
usemtl Material.004
s off
f 9/9/3 10/10/3 12/11/3 11/12/3
o Plane.003_Plane.001
v -38.089996 0.000000 -27.060001
v -28.089996 0.000000 -27.060001
v -38.089996 0.000000 -43.060001
v -28.089996 0.000000 -43.060001
vt 0.000000 0.000000
vt 1.000000 0.000000
vt 1.000000 1.000000
vt 0.000000 1.000000
vn 0.0000 1.0000 0.0000
usemtl Material.003
s off
f 13/13/4 14/14/4 16/15/4 15/16/4
o Plane.004_Plane.002
v -22.569998 0.000000 4.730000
v -22.569998 0.000000 -5.270000
v -38.570000 0.000000 4.730001
v -38.570000 0.000000 -5.269999
vt 0.000000 0.000000
vt 1.000000 0.000000
vt 1.000000 1.000000
vt 0.000000 1.000000
vn 0.0000 1.0000 0.0000
usemtl Material.005
s off
f 17/17/5 18/18/5 20/19/5 19/20/5
o Plane.005_Plane.006
v -12.329998 0.000000 -31.490002
v 7.190002 0.000000 -31.490002
v -12.329998 0.000000 -43.350002
v 7.190002 0.000000 -43.350002
vt 0.000000 0.000000
vt 1.000000 0.000000
vt 1.000000 1.000000
vt 0.000000 1.000000
vn 0.0000 1.0000 0.0000
usemtl Material.006
s off
f 21/21/6 22/22/6 24/23/6 23/24/6
o Plane.006_Plane.007
v -5.910000 0.000000 7.400000
v 4.090000 0.000000 7.400000
v -5.910000 0.000000 -8.600000
v 4.090000 0.000000 -8.600000
vt 0.000000 0.000000
vt 1.000000 0.000000
vt 1.000000 1.000000
vt 0.000000 1.000000
vn 0.0000 1.0000 0.0000
usemtl Material.007
s off
f 25/25/7 26/26/7 28/27/7 27/28/7
o Plane.007_Plane.008
v 6.319999 0.000000 9.549999
v 16.519999 0.000000 9.549999
v 6.319999 0.000000 0.810000
v 16.519999 0.000000 0.810000
vt 0.000000 0.000000
vt 1.000000 0.000000
vt 1.000000 1.000000
vt 0.000000 1.000000
vn 0.0000 1.0000 0.0000
usemtl Material.008
s off
f 29/29/8 30/30/8 32/31/8 31/32/8
o Plane.008_Plane.009
v 24.140001 0.000000 -32.059998
v 24.140001 0.000000 -42.059998
v 8.140001 0.000000 -32.059998
v 8.140001 0.000000 -42.059998
vt 0.000000 0.000000
vt 1.000000 0.000000
vt 1.000000 1.000000
vt 0.000000 1.000000
vn 0.0000 1.0000 0.0000
usemtl Material.009
s off
f 33/33/9 34/34/9 36/35/9 35/36/9
o Plane.009_Plane
v -20.230000 0.000000 2.270000
v -8.089998 0.000000 2.270000
v -20.230000 0.000000 -8.609999
v -8.089998 0.000000 -8.609999
vt 0.000000 0.000000
vt 1.000000 0.000000
vt 1.000000 1.000000
vt 0.000000 1.000000
vn 0.0000 1.0000 0.0000
usemtl Material.010
s off
f 37/37/10 38/38/10 40/39/10 39/40/10
o Plane.010
v -22.569998 0.000000 26.680000
v -22.569998 0.000000 16.680000
v -38.570000 0.000000 26.680000
v -38.570000 0.000000 16.680000
vt 0.000000 0.000000
vt 1.000000 0.000000
vt 1.000000 1.000000
vt 0.000000 1.000000
vn 0.0000 1.0000 0.0000
usemtl Material.011
s off
f 41/41/11 42/42/11 44/43/11 43/44/11
o Plane.011
v -38.590000 0.000000 14.839999
v -22.590000 0.000000 14.839999
v -38.590000 0.000000 6.099999
v -22.590000 0.000000 6.099999
vt 0.000000 0.000000
vt 1.000000 0.000000
vt 1.000000 1.000000
vt 0.000000 1.000000
vn 0.0000 1.0000 0.0000
usemtl Material.012
s off
f 45/45/12 46/46/12 48/47/12 47/48/12
o Plane.012
v 15.969999 0.000000 -9.830000
v 15.969999 0.000000 -15.510000
v -23.369997 0.000000 -9.829998
v -23.369997 0.000000 -15.509998
v -26.710001 0.000000 -9.820002
v -13.490001 0.000000 -9.820002
v -26.710003 0.000000 -43.099998
v -13.490001 0.000000 -43.099998
v 11.729999 0.000000 -9.840002
v 17.410000 0.000000 -9.840002
v 11.730000 0.000000 -23.539999
v 17.410000 0.000000 -23.539999
v 41.799995 0.000000 -21.120003
v 41.799995 0.000000 -26.800003
v 11.720002 0.000000 -21.120003
v 11.720001 0.000000 -26.800003
v 36.129997 0.000000 -6.620001
v 41.809998 0.000000 -6.620001
v 36.129997 0.000000 -26.759998
v 41.810005 0.000000 -26.759998
v 41.810005 0.000000 -2.680001
v 41.810005 0.000000 -8.360003
v 18.790001 0.000000 -2.680000
v 18.790001 0.000000 -8.360001
v 17.680002 0.000000 26.530003
v 23.360001 0.000000 26.530003
v 17.680002 0.000000 -8.350001
v 23.360001 0.000000 -8.350001
v 41.810005 0.000000 26.520000
v 41.810005 0.000000 20.840000
v 18.790003 0.000000 26.520004
v 18.790003 0.000000 20.840004
vt 0.000000 0.000000
vt 1.000000 0.000000
vt 1.000000 1.000000
vt 0.000000 1.000000
vt 0.000000 0.000000
vt 1.000000 0.000000
vt 1.000000 1.000000
vt 0.000000 1.000000
vt 0.000000 0.000000
vt 1.000000 0.000000
vt 1.000000 1.000000
vt 0.000000 1.000000
vt 0.000000 0.000000
vt 1.000000 0.000000
vt 1.000000 1.000000
vt 0.000000 1.000000
vt 0.000000 0.000000
vt 1.000000 0.000000
vt 1.000000 1.000000
vt 0.000000 1.000000
vt 0.000000 0.000000
vt 1.000000 0.000000
vt 1.000000 1.000000
vt 0.000000 1.000000
vt 0.000000 0.000000
vt 1.000000 0.000000
vt 1.000000 1.000000
vt 0.000000 1.000000
vt 0.000000 0.000000
vt 1.000000 0.000000
vt 1.000000 1.000000
vt 0.000000 1.000000
vn 0.0000 1.0000 0.0000
usemtl Material.019
s off
f 49/49/13 50/50/13 52/51/13 51/52/13
f 53/53/13 54/54/13 56/55/13 55/56/13
f 57/57/13 58/58/13 60/59/13 59/60/13
f 61/61/13 62/62/13 64/63/13 63/64/13
f 65/65/13 66/66/13 68/67/13 67/68/13
f 69/69/13 70/70/13 72/71/13 71/72/13
f 73/73/13 74/74/13 76/75/13 75/76/13
f 77/77/13 78/78/13 80/79/13 79/80/13
o Plane.016
v 40.520000 0.000000 19.410000
v 40.520000 0.000000 9.410000
v 24.520000 0.000000 19.410000
v 24.520000 0.000000 9.410000
vt 0.000000 0.000000
vt 1.000000 0.000000
vt 1.000000 1.000000
vt 0.000000 1.000000
vn 0.0000 1.0000 0.0000
usemtl Material.013
s off
f 81/81/14 82/82/14 84/83/14 83/84/14
o Plane.017
v 6.320000 0.000000 26.849998
v 16.320000 0.000000 26.849998
v 6.320000 0.000000 10.849998
v 16.320000 0.000000 10.849998
vt 0.000000 0.000000
vt 1.000000 0.000000
vt 1.000000 1.000000
vt 0.000000 1.000000
vn 0.0000 1.0000 0.0000
usemtl Material.014
s off
f 85/85/15 86/86/15 88/87/15 87/88/15
o Plane.018
v -38.189999 0.000000 -9.599998
v -28.189999 0.000000 -9.599998
v -38.189999 0.000000 -25.599998
v -28.189999 0.000000 -25.599998
vt 0.000000 0.000000
vt 1.000000 0.000000
vt 1.000000 1.000000
vt 0.000000 1.000000
vn 0.0000 1.0000 0.0000
usemtl Material.015
s off
f 89/89/16 90/90/16 92/91/16 91/92/16
o Plane.023
v 24.540001 0.000000 8.129999
v 40.540001 0.000000 8.129999
v 24.540001 0.000000 -0.610001
v 40.540001 0.000000 -0.610001
vt 0.000000 0.000000
vt 1.000000 0.000000
vt 1.000000 1.000000
vt 0.000000 1.000000
vn 0.0000 1.0000 0.0000
usemtl Material.016
s off
f 93/93/17 94/94/17 96/95/17 95/96/17
o Plane.024
v 34.790001 0.000000 -9.789999
v 34.790001 0.000000 -19.789999
v 18.790001 0.000000 -9.789999
v 18.790001 0.000000 -19.789999
vt 0.000000 0.000000
vt 1.000000 0.000000
vt 1.000000 1.000000
vt 0.000000 1.000000
vn 0.0000 1.0000 0.0000
usemtl Material.017
s off
f 97/97/18 98/98/18 100/99/18 99/100/18
o Plane.025
v 41.210003 0.000000 -32.130001
v 41.210003 0.000000 -42.130001
v 25.210003 0.000000 -32.130001
v 25.210003 0.000000 -42.130001
vt 0.000000 0.000000
vt 1.000000 0.000000
vt 1.000000 1.000000
vt 0.000000 1.000000
vn 0.0000 1.0000 0.0000
usemtl Material.018
s off
f 101/101/19 102/102/19 104/103/19 103/104/19
o Plane.013_Plane.026
v -43.845943 -0.075304 27.860388
v 50.694057 -0.075304 27.860388
v -43.845943 -0.075304 -44.399612
v 50.694057 -0.075304 -44.399612
vt 0.000000 0.000000
vt 1.000000 0.000000
vt 1.000000 1.000000
vt 0.000000 1.000000
vn 0.0000 1.0000 0.0000
usemtl Material.020
s off
f 105/105/20 106/106/20 108/107/20 107/108/20
